<svg width="24" height="19" viewBox="0 0 24 19" fill="none" xmlns="http://www.w3.org/2000/svg">
<path d="M5.1 14.25H14.3V11.875H5.1V14.25ZM5.1 9.5H18.9V7.125H5.1V9.5ZM2.8 19C2.1675 19 1.62604 18.7674 1.17563 18.3023C0.725208 17.8372 0.5 17.2781 0.5 16.625V2.375C0.5 1.72187 0.725208 1.16276 1.17563 0.697656C1.62604 0.232552 2.1675 0 2.8 0H9.7L12 2.375H21.2C21.8325 2.375 22.374 2.60755 22.8244 3.07266C23.2748 3.53776 23.5 4.09688 23.5 4.75V16.625C23.5 17.2781 23.2748 17.8372 22.8244 18.3023C22.374 18.7674 21.8325 19 21.2 19H2.8ZM2.8 16.625H21.2V4.75H11.0513L8.75125 2.375H2.8V16.625Z" fill="#242424" fill-opacity="0.8"/>
</svg>
